<svg width="22" height="23" viewBox="0 0 22 23" fill="none" xmlns="http://www.w3.org/2000/svg">
    <path
        d="M11.0003 21.7322C16.5233 21.7322 21.0003 17.2552 21.0003 11.7322C21.0003 6.20918 16.5233 1.73218 11.0003 1.73218C5.47731 1.73218 1.00031 6.20918 1.00031 11.7322C1.00031 17.2552 5.47731 21.7322 11.0003 21.7322Z"
        stroke="#808080" stroke-width="1.5" stroke-linecap="round" stroke-linejoin="round" />
    <path
        d="M11 14.7324C11.7956 14.7324 12.5587 14.4164 13.1213 13.8537C13.6839 13.2911 14 12.5281 14 11.7324C14 10.9368 13.6839 10.1737 13.1213 9.6111C12.5587 9.04849 11.7956 8.73242 11 8.73242C10.2044 8.73242 9.44129 9.04849 8.87868 9.6111C8.31607 10.1737 8 10.9368 8 11.7324C8 12.5281 8.31607 13.2911 8.87868 13.8537C9.44129 14.4164 10.2044 14.7324 11 14.7324V14.7324Z"
        stroke="#808080" stroke-width="1.5" stroke-linecap="round" stroke-linejoin="round" />
    <path d="M1.00031 11.7324H8.00031M14.0003 11.7324H21.0003" stroke="#808080"
        stroke-width="1.5" />
</svg>
